<svg width="84" height="58" viewBox="0 0 84 58" fill="none" xmlns="http://www.w3.org/2000/svg">
<rect x="0.5" y="0.5" width="83" height="57" rx="3.5" fill="#006FCF" stroke="#F3F3F3"/>
<path fill-rule="evenodd" clip-rule="evenodd" d="M17.1812 41.896V29.9559H30.6845L32.1332 31.7241L33.6299 29.9559H82.6433V41.0725C82.6433 41.0725 81.3615 41.884 79.8791 41.896H52.7393L51.1059 40.0138V41.896H45.7534V38.683C45.7534 38.683 45.0222 39.1315 43.4415 39.1315H41.6196V41.896H33.5153L32.0687 40.0898L30.5998 41.896H17.1812ZM1.4483 20.9567L4.48643 14.3103H9.74055L11.4647 18.0334V14.3103H17.9961L19.0225 17.0012L20.0175 14.3103H49.3366V15.6631C49.3366 15.6631 50.8779 14.3103 53.4108 14.3103L62.9238 14.3415L64.6182 18.0158V14.3103H70.084L71.5883 16.4209V14.3103H77.1043V26.2503H71.5883L70.1467 24.1329V26.2503H62.1162L61.3087 24.3682H59.1498L58.3554 26.2503H52.9094C50.7298 26.2503 49.3366 24.9252 49.3366 24.9252V26.2503H41.1254L39.4957 24.3682V26.2503H8.96219L8.15517 24.3682H6.0032L5.20188 26.2503H1.4483V20.9567ZM1.46398 24.7226L5.56175 15.7822H8.66838L12.7622 24.7226H10.0356L9.28343 22.9323H4.88793L4.13184 24.7226H1.46398ZM8.41765 20.9913L7.07784 17.8629L5.73412 20.9913H8.41765ZM13.0443 24.7211V15.7807L16.8355 15.7939L19.0405 21.5581L21.1928 15.7807H24.9537V24.7211H22.5718V18.1335L20.047 24.7211H17.958L15.4262 18.1335V24.7211H13.0443ZM26.5834 24.7211V15.7807H34.3558V17.7806H28.9903V19.3098H34.2305V21.192H28.9903V22.7801H34.3558V24.7211H26.5834ZM35.7348 24.7226V15.7822H41.0353C42.7916 15.7822 44.3652 16.8013 44.3652 18.6827C44.3652 20.291 43.0384 21.3269 41.7522 21.4288L44.8862 24.7226H41.9755L39.1196 21.5464H38.1167V24.7226H35.7348ZM40.8394 17.7821H38.1167V19.6642H40.8746C41.352 19.6642 41.9676 19.3171 41.9676 18.7231C41.9676 18.2615 41.4925 17.7821 40.8394 17.7821ZM47.7696 24.7211H45.3375V15.7807H47.7696V24.7211ZM53.5362 24.7211H53.0113C50.4713 24.7211 48.9292 22.8433 48.9292 20.2877C48.9292 17.6689 50.454 15.7807 53.6616 15.7807H56.2942V17.8982H53.5653C52.2632 17.8982 51.3424 18.8517 51.3424 20.3097C51.3424 22.0411 52.3953 22.7683 53.9123 22.7683H54.5391L53.5362 24.7211ZM54.6214 24.7226L58.7191 15.7822H61.8258L65.9196 24.7226H63.193L62.4408 22.9323H58.0453L57.2892 24.7226H54.6214ZM61.575 20.9913L60.2352 17.8629L58.8915 20.9913H61.575ZM66.1978 24.7211V15.7807H69.226L73.0927 21.3979V15.7807H75.4745V24.7211H72.5442L68.5796 18.9569V24.7211H66.1978ZM18.8109 40.3667V31.4263H26.5834V33.4262H21.2179V34.9554H26.458V36.8376H21.2179V38.4257H26.5834V40.3667H18.8109ZM56.8959 40.3667V31.4263H64.6684V33.4262H59.3029V34.9554H64.5179V36.8376H59.3029V38.4257H64.6684V40.3667H56.8959ZM26.885 40.3667L30.6694 35.9516L26.7949 31.4263H29.7958L32.1032 34.2239L34.4185 31.4263H37.3018L33.4783 35.8965L37.2696 40.3667H34.2692L32.0288 37.6132L29.8428 40.3667H26.885ZM37.5526 40.3682V31.4278H42.8138C44.9727 31.4278 46.2339 32.7335 46.2339 34.4349C46.2339 36.4888 44.6258 37.5449 42.5044 37.5449H39.9971V40.3682H37.5526ZM42.6376 33.4497H39.9971V35.5083H42.6297C43.3254 35.5083 43.8128 35.0757 43.8128 34.479C43.8128 33.8439 43.3229 33.4497 42.6376 33.4497ZM47.2681 40.3667V31.4263H52.5686C54.3249 31.4263 55.8985 32.4454 55.8985 34.3268C55.8985 35.9351 54.5717 36.971 53.2855 37.0729L56.4195 40.3667H53.5088L50.6529 37.1905H49.65V40.3667H47.2681ZM52.3727 33.4262H49.65V35.3083H52.4079C52.8853 35.3083 53.5009 34.9612 53.5009 34.3672C53.5009 33.9056 53.0258 33.4262 52.3727 33.4262ZM65.7715 40.3667V38.4257H70.5384C71.2438 38.4257 71.5492 38.068 71.5492 37.6758C71.5492 37.2999 71.2447 36.9199 70.5384 36.9199H68.3843C66.5119 36.9199 65.4691 35.8495 65.4691 34.2423C65.4691 32.8087 66.424 31.4263 69.2065 31.4263H73.8449L72.842 33.4379H68.8304C68.0635 33.4379 67.8275 33.8155 67.8275 34.1761C67.8275 34.5467 68.1192 34.9554 68.705 34.9554H70.9615C73.0488 34.9554 73.9545 36.0664 73.9545 37.5214C73.9545 39.0855 72.9453 40.3667 70.8479 40.3667H65.7715ZM74.1645 40.3667V38.4257H78.9314C79.6368 38.4257 79.9422 38.068 79.9422 37.6758C79.9422 37.2999 79.6377 36.9199 78.9314 36.9199H76.7773C74.9049 36.9199 73.8621 35.8495 73.8621 34.2423C73.8621 32.8087 74.817 31.4263 77.5995 31.4263H82.2378L81.235 33.4379H77.2234C76.4565 33.4379 76.2205 33.8155 76.2205 34.1761C76.2205 34.5467 76.5122 34.9554 77.098 34.9554H79.3545C81.4418 34.9554 82.3475 36.0664 82.3475 37.5214C82.3475 39.0855 81.3383 40.3667 79.2409 40.3667H74.1645Z" fill="white"/>
</svg>
