<svg width="2500" height="643" viewBox="0 0 2500 643" fill="none" xmlns="http://www.w3.org/2000/svg">
<g clip-path="url(#clip0)">
<path d="M797.579 43.9046H913.329V73.3986H831.247V119.309H898.026V148.525H831.247V217.808H797.579V43.9046ZM952.84 66.1642C940.034 66.1642 932.806 58.3733 932.806 46.4088C932.806 34.7224 940.034 26.6533 952.84 26.6533C965.918 26.6533 973.152 34.7224 973.152 46.4088C973.145 58.3733 965.911 66.1642 952.84 66.1642ZM936.417 217.802V90.3651L969.25 85.6349V217.802H936.417ZM1083.96 217.802V139.615C1083.96 120.694 1076.46 114.294 1061.71 114.294C1050.3 114.294 1039.73 120.137 1033.33 126.259V217.802H1000.5V90.0869L1033.33 85.6349V105.947C1044.74 93.4258 1060.04 85.3567 1075.62 85.3567C1101.49 85.3567 1116.8 102.051 1116.8 129.598V217.802H1083.96ZM1232.94 31.94L1265.78 27.4881V217.808H1232.94V205.287C1224.32 213.634 1212.62 221.982 1196.76 221.982C1162.82 221.982 1140.84 194.436 1140.84 154.646C1140.84 113.744 1169.22 85.3632 1205.67 85.3632C1214.85 85.3632 1224.87 87.0326 1232.94 89.5369V31.94ZM1208.73 111.512C1186.75 111.512 1174.23 129.598 1174.23 153.249C1174.23 178.291 1186.75 194.151 1206.5 194.151C1217.35 194.151 1225.7 190.255 1232.93 183.577V119.024C1226.54 114.301 1218.47 111.512 1208.73 111.512ZM1395.99 89.5304V167.717C1395.99 186.638 1403.78 192.76 1417.7 192.76C1429.38 192.76 1439.67 187.473 1445.79 181.63V89.5304H1478.63V216.967L1445.79 221.419V202.498C1435.23 213.906 1419.92 221.975 1403.51 221.975C1378.47 221.975 1363.17 205.281 1363.17 177.734V89.5304H1395.99ZM1551.69 222.254C1534.99 222.254 1514.68 217.523 1501.88 210.289L1509.12 184.69C1521.92 191.925 1538.33 196.655 1552.52 196.655C1565.33 196.655 1573.67 191.368 1573.67 182.464C1573.67 172.448 1562.83 168.83 1547.8 165.213C1523.59 159.648 1504.39 149.631 1504.39 125.424C1504.39 101.217 1524.7 85.3567 1555.58 85.3567C1571.44 85.3567 1590.37 89.5304 1602.34 95.6518L1595.1 121.25C1582.58 114.851 1566.16 110.677 1554.76 110.677C1542.79 110.677 1535.56 115.129 1535.56 123.476C1535.56 133.215 1546.42 136.554 1561.44 140.171C1585.92 146.014 1605.12 155.475 1605.12 180.517C1605.11 204.446 1584.52 222.254 1551.69 222.254ZM1752.58 221.975C1715.01 221.975 1687.75 196.377 1687.75 153.805C1687.75 111.512 1716.4 85.0784 1754.25 85.0784C1792.09 85.0784 1819.08 111.234 1819.08 153.527C1819.08 195.542 1790.15 221.975 1752.58 221.975ZM1753.13 111.512C1731.71 111.512 1720.03 128.763 1720.03 153.527C1720.03 178.013 1732.27 195.264 1753.7 195.264C1774.85 195.264 1786.52 178.569 1786.52 153.805C1786.52 129.041 1774.29 111.512 1753.13 111.512ZM1926.98 217.802V139.615C1926.98 120.694 1919.48 114.294 1904.73 114.294C1893.32 114.294 1882.74 120.137 1876.34 126.259V217.802H1843.51V90.0869L1876.34 85.6349V105.947C1887.76 93.4258 1903.06 85.3567 1918.63 85.3567C1944.51 85.3567 1959.82 102.051 1959.82 129.598V217.802H1926.98Z" fill="#465B94"/>
<path d="M797.579 333.759H980.606V380.394H850.814V452.991H956.412V499.186H850.814V608.743H797.579V333.759ZM1107.47 585.423C1092.95 603.023 1075.35 615.337 1050.27 615.337C1013.75 615.337 987.355 590.263 987.355 558.142C987.355 520.747 1014.64 489.065 1107.47 485.992V481.152C1107.47 453.871 1096.02 442.437 1066.99 442.437C1046.31 442.437 1021.23 451.677 999.669 463.991L989.115 423.076C1008.92 410.762 1040.59 399.322 1074.03 399.322C1136.5 399.322 1160.7 427.036 1159.38 482.912V555.508C1159.38 570.909 1162.02 573.109 1177.42 573.989L1173.46 613.144C1134.74 617.55 1116.7 605.67 1109.22 585.429H1107.47V585.423ZM1107.47 513.26C1056.88 519.42 1038.4 529.541 1038.4 551.101C1038.4 566.502 1050.27 577.502 1068.75 577.502C1085.03 577.502 1098.23 570.022 1107.47 559.902V513.26H1107.47ZM1298.3 615.337C1232.3 615.337 1193.15 574.422 1193.15 507.986C1193.15 441.99 1236.27 399.315 1300.06 399.315C1327.78 399.315 1351.54 405.469 1370.02 416.469L1359.03 458.264C1342.31 447.704 1322.95 441.984 1304.02 441.984C1266.63 441.984 1246.39 467.498 1246.39 506.66C1246.39 548.021 1269.71 572.216 1304.02 572.216C1325.15 572.216 1344.51 566.495 1360.34 556.382L1368.71 598.617C1351.09 609.184 1325.58 615.337 1298.3 615.337ZM1438.49 518.547C1440.69 551.548 1463.14 573.982 1499.2 573.982C1520.77 573.982 1544.09 566.942 1562.56 555.501L1569.17 598.623C1549.81 609.184 1522.96 615.337 1495.69 615.337C1430.58 615.337 1387.45 573.982 1387.45 509.306C1387.45 443.31 1431.45 399.315 1492.16 399.315C1545.84 399.315 1575.77 431.87 1575.77 481.585C1575.77 492.586 1574 506.666 1571.37 515.46L1438.49 517.22V518.547ZM1526.93 486.425V482.905C1526.93 455.631 1515.05 438.47 1488.21 438.47C1459.61 438.47 1442.46 461.791 1439.82 486.865L1526.93 486.425ZM1707.72 614.897C1694.53 614.897 1675.61 612.257 1662.41 607.857L1612.69 615.331V314.838L1664.61 307.798V425.27C1678.24 412.076 1696.72 399.315 1721.36 399.315C1775.04 399.315 1810.23 442.864 1810.23 505.346C1810.24 570.022 1765.36 614.897 1707.72 614.897ZM1706.41 442.864C1689.25 442.864 1676.05 449.47 1664.61 459.584V562.102C1674.29 569.576 1687.49 573.542 1702.88 573.542C1737.65 573.542 1757.44 545.381 1757.44 507.546C1757.44 467.945 1738.52 442.864 1706.41 442.864ZM1937.37 615.337C1877.97 615.337 1834.85 574.862 1834.85 507.546C1834.85 440.67 1880.17 398.875 1940.01 398.875C1999.84 398.875 2042.52 440.237 2042.52 507.113C2042.52 573.542 1996.76 615.337 1937.37 615.337ZM1938.24 440.67C1904.38 440.67 1885.89 467.951 1885.89 507.113C1885.89 545.828 1905.24 573.102 1939.13 573.102C1972.57 573.102 1991.05 546.708 1991.05 507.546C1991.05 468.391 1971.69 440.67 1938.24 440.67ZM2170.22 615.337C2110.83 615.337 2067.71 574.862 2067.71 507.546C2067.71 440.67 2113.03 398.875 2172.86 398.875C2232.71 398.875 2275.37 440.237 2275.37 507.113C2275.37 573.542 2229.63 615.337 2170.22 615.337ZM2171.11 440.67C2137.23 440.67 2118.75 467.951 2118.75 507.113C2118.75 545.828 2138.11 573.102 2172 573.102C2205.42 573.102 2223.9 546.708 2223.9 507.546C2223.9 468.391 2204.55 440.67 2171.11 440.67ZM2363.09 511.06V608.737H2311.17V314.838L2363.09 307.798V496.106H2363.96L2436.56 405.915H2498.6L2414.56 502.266L2499.04 608.737H2437L2363.96 511.06H2363.09Z" fill="#465B94"/>
<path d="M608.482 2.36183e-06H36.4539C31.7933 -0.00169827 27.1781 0.915015 22.872 2.69775C18.5658 4.48049 14.6532 7.09431 11.3577 10.3898C8.06217 13.6854 5.44836 17.598 3.66562 21.9041C1.88288 26.2102 0.966167 30.8255 0.967867 35.486V607.508C0.967867 616.919 4.70656 625.945 11.3615 632.6C18.0164 639.255 27.0424 642.994 36.4539 642.994H608.482C617.892 642.99 626.915 639.25 633.568 632.596C640.221 625.941 643.96 616.917 643.961 607.508V35.486C643.962 30.8263 643.045 26.2119 641.263 21.9066C639.48 17.6013 636.867 13.6893 633.572 10.394C630.277 7.09875 626.366 4.48476 622.061 2.70134C617.756 0.917923 613.142 2.28434e-06 608.482 2.36183e-06Z" fill="#485A95"/>
<path d="M528.205 393.996L540.713 296.953H444.621V234.995C444.621 206.905 452.418 187.758 492.712 187.758L544.091 187.738V100.932C535.206 99.7544 504.709 97.1143 469.217 97.1143C395.126 97.1143 344.401 142.339 344.401 225.392V296.959H260.616V394.002H344.407V643.006H444.628V393.996H528.205Z" fill="white"/>
</g>
<defs>
<clipPath id="clip0">
<rect width="2500" height="643" fill="white"/>
</clipPath>
</defs>
</svg>
